<?xml version="1.0" encoding="UTF-8"?>
<svg version="1.1" xmlns="http://www.w3.org/2000/svg" width="192" height="192">
<path d="M0 0 C3.5216355 8.55600103 6.49802319 17.12800703 8.6875 26.125 C8.87723389 26.87869873 9.06696777 27.63239746 9.26245117 28.40893555 C13.30925756 45.77977723 14.55329219 63.34323035 14.4375 81.125 C14.43393494 82.58054291 14.43393494 82.58054291 14.43029785 84.06549072 C14.36822582 100.34805355 13.28809563 116.0145708 10 132 C9.85046875 132.76779785 9.7009375 133.5355957 9.546875 134.32666016 C6.50605955 149.45682868 -0.48421594 162.98241356 -10 175 C-10.66 175.99 -11.32 176.98 -12 178 C-12.66 178 -13.32 178 -14 178 C-14.33 178.99 -14.66 179.98 -15 181 C-23.69315736 189.71697423 -34.26005341 192.4453111 -46.1875 192.5625 C-47.11385254 192.57716309 -48.04020508 192.59182617 -48.99462891 192.60693359 C-55.4877352 192.51074801 -60.30565436 191.07867705 -66 188 C-67.23556641 187.34837891 -67.23556641 187.34837891 -68.49609375 186.68359375 C-93.28389643 170.77351517 -100.27510975 139.77488902 -107.27319336 113.15527344 C-111.57911796 96.95137907 -117.07146643 80.02833914 -128 67 C-136.05013548 83.26372548 -136.45665149 103.11579012 -134.5 120.8359375 C-133.86288171 126.7646128 -133.77864818 132.66617912 -133.75 138.625 C-133.729375 139.70523438 -133.70875 140.78546875 -133.6875 141.8984375 C-133.63398734 152.86853215 -136.63991043 159.85540476 -144 168 C-149.47491119 173.46492048 -155.44800525 177.91081179 -162 182 C-174.1157362 171.14486063 -177.01049238 145.43548379 -178 130 C-179.72736692 91.89707521 -177.80543058 53.70814586 -156 21 C-155.34 21 -154.68 21 -154 21 C-153.731875 20.360625 -153.46375 19.72125 -153.1875 19.0625 C-152 17 -152 17 -149 16 C-149 15.34 -149 14.68 -149 14 C-139.74160164 5.84618279 -129.68623641 2.20635406 -117.41796875 2.62109375 C-107.68202631 3.70039251 -99.86976779 8.41025839 -92 14 C-90.77216797 14.83917969 -90.77216797 14.83917969 -89.51953125 15.6953125 C-86.0886737 18.8336163 -83.93028868 22.40028979 -81.5625 26.375 C-81.08022949 27.17719971 -80.59795898 27.97939941 -80.10107422 28.8059082 C-76.06170428 35.65323248 -72.77582813 42.53725959 -70 50 C-69.59652344 51.06089844 -69.19304687 52.12179688 -68.77734375 53.21484375 C-65.7712684 61.65311957 -63.67364619 70.24033371 -61.5625 78.9375 C-57.42249768 95.91016754 -52.70805682 112.57017012 -41 126 C-41 126.66 -41 127.32 -41 128 C-40.34 128 -39.68 128 -39 128 C-39 128.66 -39 129.32 -39 130 C-36.66785852 131.20628008 -34.50357861 132.1654738 -32 133 C-27.68830142 107.42283659 -27.77776662 81.64897611 -32.62426758 56.15307617 C-35.42980953 41.38111339 -36.99234136 27.61195637 -29 14 C-24.43632301 7.55856008 -18.20589398 4.79078496 -11 2 C-9.88625 1.566875 -8.7725 1.13375 -7.625 0.6875 C-4.95578285 -0.01158068 -2.7432775 -0.05046163 0 0 Z " fill="#E30813" transform="translate(178,0)"/>
<path d="M0 0 C3.5216355 8.55600103 6.49802319 17.12800703 8.6875 26.125 C8.97210083 27.2555481 8.97210083 27.2555481 9.26245117 28.40893555 C13.11751421 44.95672245 14.5055063 61.72654734 14.39111328 78.67724609 C14.37499906 81.50016539 14.39110586 84.32165393 14.41015625 87.14453125 C14.42294577 100.29897868 13.10350633 113.02111102 11 126 C10.34 126 9.68 126 9 126 C8.835 126.680625 8.67 127.36125 8.5 128.0625 C6.31008067 132.35109203 2.87999001 135.19509056 -1 138 C-1.66 138 -2.32 138 -3 138 C-3 138.66 -3 139.32 -3 140 C-8.81571644 142.58476286 -14.76651521 142.89690429 -21 142 C-25.22501931 140.35214666 -29.1073338 138.31903518 -33 136 C-33 135.01 -33 134.02 -33 133 C-32.67 133 -32.34 133 -32 133 C-27.68830142 107.42283659 -27.77776662 81.64897611 -32.62426758 56.15307617 C-35.42980953 41.38111339 -36.99234136 27.61195637 -29 14 C-24.43632301 7.55856008 -18.20589398 4.79078496 -11 2 C-9.88625 1.566875 -8.7725 1.13375 -7.625 0.6875 C-4.95578285 -0.01158068 -2.7432775 -0.05046163 0 0 Z " fill="#B40814" transform="translate(178,0)"/>
<path d="M0 0 C4.78913151 2.6967925 8.81486128 6.12327336 12.75 9.9375 C12.42 10.5975 12.09 11.2575 11.75 11.9375 C3.69440769 28.19383043 3.29388399 48.05813962 5.25 65.7734375 C5.88711829 71.7021128 5.97135182 77.60367912 6 83.5625 C6.020625 84.64273438 6.04125 85.72296875 6.0625 86.8359375 C6.11601266 97.80603215 3.11008957 104.79290476 -4.25 112.9375 C-9.72491119 118.40242048 -15.69800525 122.84831179 -22.25 126.9375 C-34.3657362 116.08236063 -37.26049238 90.37298379 -38.25 74.9375 C-40.88175934 16.88513901 -40.88175934 16.88513901 -32.25 3.9375 C-32.25 5.5875 -32.25 7.2375 -32.25 8.9375 C-31.75371094 8.47859375 -31.25742187 8.0196875 -30.74609375 7.546875 C-21.34726969 -0.94238544 -12.72266702 -5.92025492 0 0 Z " fill="#BB0814" transform="translate(38.25,55.0625)"/>
<path d="M0 0 C0.66 0.66 1.32 1.32 2 2 C0.23519919 3.8187336 -1.53630765 5.62994991 -3.3125 7.4375 C-4.06176758 8.2119043 -4.06176758 8.2119043 -4.82617188 9.00195312 C-7.19869635 11.40590176 -8.74970379 12.91656793 -12 14 C-11.34 12.35 -10.68 10.7 -10 9 C-9.34 9 -8.68 9 -8 9 C-7.731875 8.360625 -7.46375 7.72125 -7.1875 7.0625 C-6 5 -6 5 -3 4 C-3 3.34 -3 2.68 -3 2 C-2.01 1.34 -1.02 0.68 0 0 Z " fill="#CA0711" transform="translate(32,12)"/>
<path d="M0 0 C0.33 0.99 0.66 1.98 1 3 C-1.31 4.98 -3.62 6.96 -6 9 C-4.86634892 4.46539569 -3.35806626 3.09975347 0 0 Z " fill="#D00810" transform="translate(156,7)"/>
</svg>
